<?xml version="1.0" encoding="UTF-8"?>
<!DOCTYPE svg PUBLIC "-//W3C//DTD SVG 1.1//EN" "http://www.w3.org/Graphics/SVG/1.1/DTD/svg11.dtd">
<!-- Creator: CorelDRAW -->
<svg xmlns="http://www.w3.org/2000/svg" xml:space="preserve" width="54.61mm" height="68.7578mm" version="1.1" style="shape-rendering:geometricPrecision; text-rendering:geometricPrecision; image-rendering:optimizeQuality; fill-rule:evenodd; clip-rule:evenodd"
viewBox="0 0 5461 6875.78"
 xmlns:xlink="http://www.w3.org/1999/xlink"
 xmlns:xodm="http://www.corel.com/coreldraw/odm/2003">
 <defs>
  <style type="text/css">
   <![CDATA[
    .fil0 {fill:#A0A0A0;fill-rule:nonzero}
   ]]>
  </style>
 </defs>
 <g id="Capa_x0020_1">
  <metadata id="CorelCorpID_0Corel-Layer"/>
  <g id="_2083411639296">
   <path class="fil0" d="M4746.35 1211.93l-857.29 0c-4.27,0 -36.72,52.75 -53.27,66.4 -123.12,101.67 -239.22,137.12 -398,147.04 -507.37,31.64 -1068.21,-9.78 -1576.43,-19.87 -88.37,-19.93 -175.68,-69.85 -245.07,-127.17 -16.55,-13.65 -49,-66.4 -53.27,-66.4l-857.28 0 0 5013.65 4040.61 0 0 -5013.65zm-3296.29 -438.85l-817.42 0c-16.05,0 -105.37,14.46 -127.11,19.12 -106.64,22.93 -214.17,143.47 -225.17,253.47 6.1,1791.97 -12.07,3586.52 9.13,5376.93 55.57,159.35 182.42,217.03 342.62,229.06 1437.36,-13.9 2879.73,25.37 4314.19,-19.89 115.11,-31.47 218.69,-142.88 225.92,-266.03l-0.49 -5320.07c-11.01,-110 -118.57,-230.54 -225.18,-253.47 -21.73,-4.66 -111.06,-19.12 -127.11,-19.12l-817.42 0c0.42,75.99 4.45,151.87 -13.3,226.06l817.42 0c39.87,0 139.88,98.88 146.69,145.84l-0.07 5134.18c-30.2,85.06 -91.94,143.44 -185.95,146.41 -1379.26,-7.09 -2760.59,11.67 -4138.54,-9.46 -69.57,-23.42 -102.95,-71.33 -128.94,-136.95l-6.57 -5100.77c-6.7,-58.85 104.18,-179.25 153.14,-179.25l817.43 0c-17.75,-74.19 -13.73,-150.07 -13.27,-226.06zm2339.31 -212.8l-2126.65 0 0 392.33c0,110.66 187.64,265.18 300.7,257.67 485.46,-22.51 1006.3,35.56 1487.6,2.25 130.1,-8.99 338.35,-109.32 338.35,-259.92l0 -392.33zm-744.33 -199.46c8.93,-49.7 -28.86,-89.64 -73.45,-106.04 -66.36,-24.45 -317.46,-20.15 -398.99,-14.22 -80.82,5.82 -170.29,21.24 -165.56,120.26l638 0zm-2977.3 638.32c59.12,-220.98 235.62,-405.7 471.38,-426.02 290.62,-25.04 616.09,20.15 910.38,-0.1 2.85,-102.98 59.05,-177.8 156.42,-209.2l588.4 -3.07c-1.1,-155.82 113.8,-301.3 272.48,-319.16 103.4,-11.64 457.17,-13.72 552.42,5.93 140.37,28.96 240.56,173.67 238.55,313.23 243.55,44.7 706.64,-137.69 751.94,213.61l939.2 2.68c230.37,43.75 411.16,232.76 435.89,468.17l-0.6 5346.46c-32.7,233.36 -195.47,387.49 -411.9,458.96l-4492.52 0c-211.38,-69.67 -353.69,-208.07 -412.04,-425.59l0 -5425.9z"/>
   <path class="fil0" d="M1981.71 4084.47c-12.98,-82.69 5.19,-233.19 123.09,-210.82 148.69,28.26 116.17,364 -58.92,414.66 -89.64,25.92 -594.04,19.68 -709.36,9.48 -88.9,-7.86 -172.97,-59.05 -196.36,-149.29 -24.06,-92.71 -22.61,-626.39 -7.94,-734.45 13.27,-97.54 94.65,-169.86 191.53,-180.73 145.41,-16.33 519.32,-16.4 664.66,0 35.25,3.95 89.15,21.56 117.73,41.77 21.94,15.56 38.52,51.51 41.87,51.51 34.36,0.14 84.6,-103.82 169.16,-90.95 101.95,15.56 102.9,116.63 49.95,190.47 -63.46,88.44 -414.44,436.21 -504.72,505.74 -30.94,23.81 -71.01,52 -112.22,46.32 -44.66,-6.14 -288,-245.89 -297.53,-288.96 -15.84,-71.62 42.33,-149.58 120.47,-134.73 52.5,9.95 174.17,170.68 189.27,170.68 42.72,-62.2 174.24,-148.03 206.73,-205.18 14.81,-26.03 15.27,-44.98 12.59,-73.87l-638 0 0 638.35 638 0z"/>
   <path class="fil0" d="M1981.72 2063.07l-638 0 0 638.35 638 0 0 -638.35zm-820.35 -182.46c14.75,-14.74 60.29,-28.22 82.37,-30.69 189.41,-21.09 632.32,-18.02 825.01,-0.28 91.37,8.43 117.93,52.07 126.15,139.77 18.35,196.32 14.78,559.97 0.04,759.11 -5.72,77.43 -12.31,134.51 -96.1,156.49 -111.23,29.21 -691.83,22.47 -828.74,9.67 -87.63,-8.19 -131.27,-34.79 -139.67,-126.23 -17.74,-192.75 -20.81,-635.91 0.28,-825.43 2.44,-22.08 15.95,-67.66 30.66,-82.41z"/>
   <path class="fil0" d="M1981.72 4829.2l-638 0 0 638.35 638 0 0 -638.35zm-819.82 820.32c-21.24,-23.18 -28.72,-63.86 -31.54,-94.87 -17.39,-190.53 -21.2,-639.16 0.39,-825.5 9.91,-85.44 76.41,-106.53 152.61,-113.27 184.08,-16.3 590.87,-19.58 771.49,0.49 68.97,7.66 112.11,25.86 130.39,95.64 29.17,111.41 22.47,692.11 9.66,829.2 -8.22,87.67 -34.78,131.34 -126.15,139.74 -265.96,24.52 -568.5,-20 -838.55,-0.04 -22.3,-2.22 -53.63,-15.31 -68.3,-31.39z"/>
   <path class="fil0" d="M4183.92 2564.15c-21.24,19.47 -65.48,31.22 -94.83,31.57 -497.94,-38.13 -1066.3,48.51 -1555.82,-0.63 -173.28,-17.39 -152.15,-198.37 -26.77,-213.11l1608.8 -0.04c92.5,1.52 134.98,121.32 68.62,182.21z"/>
   <path class="fil0" d="M4184.27 5285.34c66.89,56.76 21.66,184.36 -68.97,182.49l-1608.88 0c-153.74,-17.78 -115.5,-211.49 26.88,-213.04 499.01,31.6 1049.55,-42.13 1542.38,-0.6 30.31,2.57 86.12,12.06 108.59,31.15z"/>
   <path class="fil0" d="M4183.92 3902.55c66.36,60.89 23.88,180.69 -68.62,182.21l-1595.57 0.07c-147.82,-12.77 -147.99,-200.63 0,-213.5 505.1,35.41 1071.59,-45.83 1569.36,-0.36 30.94,2.82 71.69,10.34 94.83,31.58z"/>
   <path class="fil0" d="M3652.26 3476.98c73.98,67.91 12.21,181.9 -81.91,182.28 -333.2,-28.11 -724.57,36.3 -1050.65,0 -151.72,-16.89 -145.83,-199.77 0,-213.5 334.16,23.85 708.59,-30.41 1037.74,-0.35 30.93,2.82 71.72,10.34 94.82,31.57z"/>
   <path class="fil0" d="M2509.87 4832.34c72.46,-13.01 359.9,-13.05 432.33,0 131.55,23.71 132.08,190.82 15.66,208.85 -67.34,10.41 -413.59,11.5 -474.84,-2.08 -105.37,-23.32 -99.73,-184.01 26.85,-206.77z"/>
   <path class="fil0" d="M2483.01 1959.53c47.76,-10.58 332.1,-10.65 379.73,0 98.6,21.98 103.86,183.27 -26.88,206.76 -60.22,10.83 -278.8,11.08 -336.69,-2.57 -116.14,-27.45 -118.08,-181.61 -16.16,-204.19z"/>
  </g>
 </g>
</svg>
