<?xml version="1.0" encoding="UTF-8"?>
<!DOCTYPE svg PUBLIC "-//W3C//DTD SVG 1.1//EN" "http://www.w3.org/Graphics/SVG/1.1/DTD/svg11.dtd">
<!-- Creator: CorelDRAW -->
<svg xmlns="http://www.w3.org/2000/svg" xml:space="preserve" width="64.77mm" height="64.9478mm" version="1.1" style="shape-rendering:geometricPrecision; text-rendering:geometricPrecision; image-rendering:optimizeQuality; fill-rule:evenodd; clip-rule:evenodd"
viewBox="0 0 6477 6494.78"
 xmlns:xlink="http://www.w3.org/1999/xlink"
 xmlns:xodm="http://www.corel.com/coreldraw/odm/2003">
 <defs>
  <style type="text/css">
   <![CDATA[
    .fil0 {fill:#A0A0A0;fill-rule:nonzero}
   ]]>
  </style>
 </defs>
 <g id="Capa_x0020_1">
  <metadata id="CorelCorpID_0Corel-Layer"/>
  <g id="_2083212541680">
   <path class="fil0" d="M2118.2 3358.73c40.85,-9.17 282.33,-8.67 319.65,3 92.96,29.11 87.07,176.99 -33.02,195.37 -52.63,8.04 -258.48,7.02 -302.86,-10.83 -83.96,-33.8 -75.95,-166.83 16.23,-187.54z"/>
   <path class="fil0" d="M5994.19 5752.64l0 -611.75c0,-4.8 -30.87,-77.09 -37.4,-88.73 -48.64,-87.03 -138.78,-132.57 -235.37,-143.05 -45.61,-4.94 -211.77,-9.77 -248.11,1.02 -25.47,7.55 -98.74,99.84 -151.69,125.8 -164.71,80.79 -339.55,44.31 -475.79,-71.08 -17.89,-15.13 -26.18,-48.58 -45.65,-55.25 -25.4,-8.74 -187.72,-5.46 -225.46,-2.54 -112.12,8.79 -235.69,65.94 -273.76,180.34 -4.94,14.79 -22.19,94.06 -22.19,103.93l0 561.31 252.27 0 0 -359.48c0,-86.29 182.81,-142.81 201.79,25.22 11.79,104.39 -8.68,227.68 0,334.26l283.81 0c29.35,0 70.38,61.7 70.13,94.61 -0.31,40.43 -42.26,107.21 -82.72,107.21l-4780.53 0c-41.31,0 -36.48,233.82 -30.73,270.41 7.17,45.65 35.14,68.44 80.97,70.38l5903.91 0.35c43.18,1.41 81.03,-15.21 91.3,-60.04 8.39,-36.52 13.05,-281.1 -28.82,-281.1l-845.12 0c-15.7,0 -69.21,-40.85 -76.45,-62.33 -48.82,-145.6 122.42,-151.06 221.51,-139.49l0 -346.89c0,-35.17 57.86,-90.63 95.78,-94.54 37.75,-3.88 106.05,34.46 106.05,69.32l0 372.11 252.27 0zm-1904.65 0l0 -599.12c0,-54.58 -74.68,-162.25 -121.92,-193.43 -77.5,-51.16 -314.85,-74.93 -398.95,-49.96 -21.03,6.25 -83.79,81.35 -121.99,105.03 -170.22,105.34 -357.02,75.56 -505.5,-50.31 -29.46,-24.98 -16.83,-51.79 -68.05,-58.1 -105.2,-12.95 -296.76,-4.41 -384.67,58.35 -42.9,30.65 -114.34,137.9 -114.34,188.42l0 599.12 252.28 0 0 -372.11c0,-29.35 61.7,-70.35 94.61,-70.1 40.39,0.28 107.21,42.26 107.21,82.73l0 359.48 807.26 0 0 -359.48c0,-40.47 66.78,-82.45 107.21,-82.73 32.88,-0.25 94.58,40.75 94.58,70.1l0 372.11 252.27 0zm-3620.03 -611.75l0 611.75 252.24 0 0 -372.11c0,-34.86 68.33,-73.2 106.08,-69.32 37.92,3.91 95.74,59.37 95.74,94.54l0 346.89 807.26 0 0 -359.48c0,-66.85 107.88,-110 163.59,-62.66 6.88,5.86 38.24,58.99 38.24,62.66l0 359.48 252.27 0 0 -561.31c0,-16.51 -23.18,-98.99 -31.57,-119.76 -43.47,-107.36 -155.08,-155.93 -264.41,-164.51 -42.76,-3.31 -191.66,-6.8 -224.9,3.07 -22.93,6.78 -59.83,59.48 -85.65,78.29 -167.68,122.06 -367.31,122.48 -528.74,-11.4 -17.82,-14.78 -54.86,-68.61 -59.31,-69.71 -54.89,-13.37 -273.5,0.32 -331.54,19.26 -84.8,27.7 -175.47,125.7 -189.3,214.32zm4843.43 -473.01c-111.12,36.83 -241.44,36.9 -352.92,0 -57.08,287.02 408.66,280.04 352.92,0zm-1904.65 0c-111.12,36.83 -241.4,36.9 -352.92,0 -55.77,286.28 404.25,281.24 352.92,0zm-1917.24 0c-105.02,40.11 -233.75,34.4 -340.29,0 -46.14,185.17 155.26,270.86 294.18,174.49 71.09,-49.36 41.84,-97.23 46.11,-174.49zm2106.58 50.45l309.03 0c78.11,0 228.5,114.3 277.5,176.35 38.77,-39.72 72.92,-76.16 120.86,-105.94 23.56,-14.6 138.71,-70.41 156.63,-70.41l296.41 0c-5.47,-40.01 11.07,-103.68 -6.18,-138.85 -4.72,-9.64 -119.48,-101.18 -144.88,-132.61 -102.91,-127.14 -154.1,-285.26 -158.89,-447.71l-535.2 0.14c1.65,172.82 -70.28,360.61 -189.48,485.35 -24.41,25.61 -114.3,85.86 -119.38,95.04 -18.06,32.63 -0.57,100.08 -6.42,138.64zm-1904.61 0l308.99 0c17.93,0 133.11,55.81 156.64,70.41 47.94,29.78 82.12,66.22 120.86,105.94 49.04,-62.05 199.39,-176.35 277.49,-176.35l296.44 0c-5.5,-40.01 11.08,-103.65 -6.2,-138.85 -5.4,-11.01 -130.36,-110.92 -157.48,-145.24 -91.66,-116.1 -150.71,-286.64 -138.96,-434.94l-535.31 -0.43c-20.39,235.2 -117.83,445.46 -316.12,580.78l-6.35 138.68zm3364.72 -1359.01c-371.47,50.87 -435.75,420.13 -399.24,733.29 62.09,532.27 892.95,527.08 955.92,-12.6 44.17,-378.46 -104.42,-782.6 -556.68,-720.69zm-1904.61 0c-606.85,83.08 -559.4,1225.76 159.63,1130.9 158.72,-20.92 331.08,-177.83 376.98,-329.39 115.99,-383.18 -72.74,-864.97 -536.61,-801.51zm-1904.65 0.04c-606.04,82.97 -562.78,1213.59 146.76,1130.58 408.76,-47.8 517.06,-598.06 337.75,-902.65 -98.29,-166.9 -292.14,-254.28 -484.51,-227.93zm4770.93 -3333.22c132.05,46.07 237.92,135.32 273.76,274.92 24.73,96.23 31.43,450.42 15.63,550.54 -18.84,119.45 -182.67,120.51 -200.35,12.63 -34.89,-213.04 116.24,-625.01 -196.39,-648.76l-5348.43 -0.6c-105.94,9.14 -185.7,47.21 -206.55,159.21l-1.13 3253.25c17.18,160.27 152.9,182.7 290.2,170.32 3.63,-344.35 308.15,-629.99 648.9,-643.89 306.56,-12.49 597.85,199.99 681.81,492.37 12.03,41.95 9.88,143.9 50.38,151.45l523.52 0.03c34.11,-619.9 816.26,-875.06 1210.56,-384.49 96.02,119.45 121.88,240.7 160.02,384.95l534.07 -0.46c75.95,-850.93 1275.61,-848.11 1363.48,-1.41 148.06,15.74 274.43,-12.03 289.32,-181.04l0.24 -2358.46c15.81,-101.04 162.03,-116.31 192.69,-17.61 17.32,805.82 7.2,1615.62 5.12,2422.78 -39.97,243.76 -253.23,362.72 -488.71,337.43 2.79,174.76 -66.18,351.29 -182.7,479.49 -80.61,88.69 -148.8,83.22 -119.98,239.54l296.44 0c40.78,0 145.03,57.01 181.72,83.11 302.54,215.44 176.84,634.02 202.91,951.27 103.16,-14.36 236.08,74.54 259.51,175.65 14.25,61.52 13.23,317 -0.14,380.01 -17.43,82.09 -90.7,148.77 -170.29,170.25l-6061.99 6.1c-115.64,-10.3 -176.5,-75.32 -220.24,-177.09l0 -378.39c50.66,-106.61 140.05,-186.16 264.97,-176.53 26.07,-317.22 -99.66,-735.83 202.92,-951.27 36.69,-26.14 140.9,-83.11 181.71,-83.11l296.41 0 -6.35 -138.68c-195.2,-136.98 -301.56,-341.03 -309.6,-579.61 -241.05,22.93 -450.04,-112.57 -478.58,-360.26l0 -3266.65c20.25,-169.86 129.54,-294.46 289.98,-346.99l5575.16 0z"/>
   <path class="fil0" d="M4035.49 3358.78c41.8,-9.35 280.99,-8.82 319.62,2.93 76.73,23.35 86.04,136.52 23.81,176.53 -43.53,28.04 -285.29,27.9 -340.15,13.69 -106.19,-27.56 -96.87,-172.27 -3.28,-193.15z"/>
   <path class="fil0" d="M5839.28 3226.41c-58.67,58.49 -172.54,23.96 -173.32,-65.58l0.99 -2447.99c2.05,-46.85 -44.8,-56.76 -82.09,-56.62l-4706.02 0c-38.88,0.07 -84.03,10.23 -82.13,56.62l0 2459.6c-17.21,110.1 -171.98,106.4 -194.87,7.48l-6.74 -2479.5c9.35,-103.47 60.08,-181.33 155.26,-223.17 1651.6,-16.08 3311.34,-16.08 4962.98,0 89.18,36.9 139.84,117.62 154.76,211.03l0.64 2447.72c-0.21,25.36 -12.38,73.37 -29.46,90.41z"/>
   <polygon class="fil0" points="1137.14,2523.06 5326.55,2523.06 5326.55,2726.01 1137.14,2726.01 "/>
   <path class="fil0" d="M2168.94 1592.49c0,-230.19 -186.62,-416.81 -416.81,-416.81 -230.19,0 -416.77,186.62 -416.77,416.81 0,230.19 186.58,416.81 416.77,416.81 230.19,0 416.81,-186.62 416.81,-416.81zm197.91 0.28c0,340.01 -275.63,615.64 -615.64,615.64 -339.97,0 -615.59,-275.63 -615.59,-615.64 0,-340 275.62,-615.63 615.59,-615.63 340.01,0 615.64,275.63 615.64,615.63z"/>
   <path class="fil0" d="M2648.22 2009.35l2558.1 -3.38c144.36,-10.76 167.75,186.05 25.01,202.56l-2573.69 0c-121.14,-11.92 -131.51,-174.59 -9.42,-199.18z"/>
   <path class="fil0" d="M2648.22 975.05l2570.55 -3.21c136.21,6.66 148.52,186.65 12.56,202.38l-2573.69 0c-121.14,-11.92 -131.51,-174.59 -9.42,-199.17z"/>
   <path class="fil0" d="M2648.22 1492.2l2570.55 -3.21c136.21,6.67 148.52,186.66 12.56,202.39l-2573.69 0c-121.14,-11.92 -131.51,-174.59 -9.42,-199.18z"/>
  </g>
 </g>
</svg>
