<?xml version="1.0" encoding="UTF-8"?>
<!DOCTYPE svg PUBLIC "-//W3C//DTD SVG 1.1//EN" "http://www.w3.org/Graphics/SVG/1.1/DTD/svg11.dtd">
<!-- Creator: CorelDRAW -->
<svg xmlns="http://www.w3.org/2000/svg" xml:space="preserve" width="58.42mm" height="72.5678mm" version="1.1" style="shape-rendering:geometricPrecision; text-rendering:geometricPrecision; image-rendering:optimizeQuality; fill-rule:evenodd; clip-rule:evenodd"
viewBox="0 0 5842 7256.78"
 xmlns:xlink="http://www.w3.org/1999/xlink"
 xmlns:xodm="http://www.corel.com/coreldraw/odm/2003">
 <defs>
  <style type="text/css">
   <![CDATA[
    .fil0 {fill:#A0A0A0;fill-rule:nonzero}
   ]]>
  </style>
 </defs>
 <g id="Capa_x0020_1">
  <metadata id="CorelCorpID_0Corel-Layer"/>
  <g id="_2046650858336">
   <path class="fil0" d="M5759.97 4122.21c0,79.48 -64.42,143.93 -143.86,143.93 -79.45,0 -143.86,-64.45 -143.86,-143.93 0,-79.48 64.41,-143.94 143.86,-143.94 79.44,0 143.86,64.46 143.86,143.94z"/>
   <path class="fil0" d="M4912.73 1445.06l-3995.13 0 0 4954.3 3995.13 0 0 -4954.3zm-1012.86 -281.48l0 -443.37c0,-252.63 -216.32,-386.05 -442.52,-401.71 -304.62,-21.1 -764.68,-19.26 -1070.36,-0.11 -231.18,14.5 -456.53,138.64 -456.53,401.82l0 443.37 1969.41 0zm-3826.3 14.07c77.4,-304.3 296.3,-528.18 612.07,-576.93l976.92 -0.81c36.37,-287.59 281.72,-503.98 557.42,-561.17 434.31,39.62 981.11,-58.38 1402.22,2.19 253.12,36.44 523.28,299.55 545.57,558.98 311.36,21.66 656.1,-26.53 963.51,0.14 318.13,27.62 582.26,301.48 625.37,612.92 -6.67,793.39 14.11,1590.92 -10.55,2381.88 -66.99,120.58 -254.32,95.67 -270.97,-45.3 -37.15,-721.89 50.45,-1494.75 0.88,-2210.64 -16.05,-231.64 -158.29,-456.85 -415.57,-456.85l-879.19 0 0 281.52 808.85 0c61.49,0 210.11,155.64 204.33,231.88l-6.99 5088.71c-40.04,103.58 -125.06,186.2 -238.83,197.38l-4080.58 -0.39c-108.34,-20.56 -186.55,-96.55 -225.14,-196.99l-6.95 -5088.71c-5.79,-76.24 142.84,-231.88 204.29,-231.88l808.89 0 0 -281.52 -879.23 0c-229.84,0 -417.59,220.8 -414.8,443.55 12.88,1775.25 -26.81,3555.61 20.11,5327.89 68.51,209.45 224.23,294.71 436.32,309.43l4207.29 0c289.56,-20.04 437.17,-168.28 457.2,-457.45 41.03,-592.74 -32.56,-1231.83 0.22,-1829.47 35.1,-151.31 262.25,-144.5 280.88,12.95l-1.84 1955.16c-54.85,310.3 -274.56,522.75 -575.24,599.69l-4529.7 0c-299.12,-76.27 -500.52,-277.78 -576.76,-577.04l0 -5489.12z"/>
   <path class="fil0" d="M3318.27 633.57c75.25,74.71 44.77,230.47 -59.19,247.68 -97.86,16.16 -589.95,16.16 -687.78,0 -130.91,-21.66 -137.41,-248.85 0,-279.86 211.77,17.82 469.02,-26.6 675.01,-1.41 26.31,3.21 53.41,15.17 71.96,33.59z"/>
   <path class="fil0" d="M2132.57 2431.9c0,-151.77 -122.98,-274.82 -274.67,-274.82 -151.7,0 -274.68,123.05 -274.68,274.82 0,151.76 122.98,274.81 274.68,274.81 151.69,0 274.67,-123.05 274.67,-274.81zm292.81 -0.43c0,313.02 -253.65,566.81 -566.53,566.81 -312.91,0 -566.56,-253.79 -566.56,-566.81 0,-313.05 253.65,-566.84 566.56,-566.84 312.88,0 566.53,253.79 566.53,566.84z"/>
   <path class="fil0" d="M2132.57 3951.96c0,-151.76 -122.98,-274.81 -274.67,-274.81 -151.7,0 -274.68,123.05 -274.68,274.81 0,151.77 122.98,274.82 274.68,274.82 151.69,0 274.67,-123.05 274.67,-274.82zm292.81 -0.45c0,313.05 -253.65,566.84 -566.53,566.84 -312.91,0 -566.56,-253.79 -566.56,-566.84 0,-313.02 253.65,-566.81 566.56,-566.81 312.88,0 566.53,253.79 566.53,566.81z"/>
   <path class="fil0" d="M2132.57 5472.03c0,-151.77 -122.98,-274.82 -274.67,-274.82 -151.7,0 -274.68,123.05 -274.68,274.82 0,151.76 122.98,274.81 274.68,274.81 151.69,0 274.67,-123.05 274.67,-274.81zm292.81 -0.43c0,313.02 -253.65,566.81 -566.53,566.81 -312.91,0 -566.56,-253.79 -566.56,-566.81 0,-313.05 253.65,-566.84 566.56,-566.84 312.88,0 566.53,253.79 566.53,566.84z"/>
   <path class="fil0" d="M2869.43 3813.09l1543.12 -2.68c128.52,20.32 147.57,213.26 32.35,270.02 -518.3,24.16 -1043.34,4.83 -1564.07,9.88 -143.62,-38.21 -143.59,-221.51 -11.4,-277.22z"/>
   <path class="fil0" d="M2869.43 5333.16l1543.12 -2.69c128.52,20.32 147.57,213.26 32.35,270.02 -518.3,24.17 -1043.34,4.83 -1564.07,9.88 -143.62,-38.21 -143.59,-221.51 -11.4,-277.21z"/>
   <path class="fil0" d="M3403.99 2293.03l1008.55 -2.68c142.24,22.47 147.04,251.14 0,279.89l-997.26 0.07c-136.32,-45.58 -142.63,-219.53 -11.29,-277.28z"/>
   <path class="fil0" d="M3060.19 2430.91c0,79.76 -64.63,144.43 -144.36,144.43 -79.73,0 -144.36,-64.67 -144.36,-144.43 0,-79.76 64.63,-144.43 144.36,-144.43 79.73,0 144.36,64.67 144.36,144.43z"/>
  </g>
 </g>
</svg>
