<?xml version="1.0" encoding="UTF-8"?>
<!DOCTYPE svg PUBLIC "-//W3C//DTD SVG 1.1//EN" "http://www.w3.org/Graphics/SVG/1.1/DTD/svg11.dtd">
<!-- Creator: CorelDRAW -->
<svg xmlns="http://www.w3.org/2000/svg" xml:space="preserve" width="57.15mm" height="73.8378mm" version="1.1" style="shape-rendering:geometricPrecision; text-rendering:geometricPrecision; image-rendering:optimizeQuality; fill-rule:evenodd; clip-rule:evenodd"
viewBox="0 0 5715 7383.78"
 xmlns:xlink="http://www.w3.org/1999/xlink"
 xmlns:xodm="http://www.corel.com/coreldraw/odm/2003">
 <defs>
  <style type="text/css">
   <![CDATA[
    .fil0 {fill:#A0A0A0;fill-rule:nonzero}
   ]]>
  </style>
 </defs>
 <g id="Capa_x0020_1">
  <metadata id="CorelCorpID_0Corel-Layer"/>
  <g id="_2083456674240">
   <path class="fil0" d="M4457.34 1852.58c0,188.38 -152.72,341.1 -341.1,341.1 -188.39,0 -341.1,-152.72 -341.1,-341.1 0,-188.39 152.71,-341.1 341.1,-341.1 188.38,0 341.1,152.71 341.1,341.1z"/>
   <path class="fil0" d="M5412.95 5279.69c148.95,-290.37 198.44,-624.24 119.1,-940.79 -65.12,-260 -219.07,-538.62 -560.32,-709.47 -782.63,-391.83 -1630.61,-841.06 -1630.61,-841.06 0,0 -1000.23,-542.96 -908.43,-1509.54 9.66,-101.53 27.76,-192.58 51.71,-275.23 -235.93,127.88 -469.97,354.4 -571.53,756.78 -239.71,949.57 862.08,1604.15 862.08,1604.15 0,0 935.64,543.91 1802.24,1023.3 866.6,479.39 497.84,1409.24 497.84,1409.24 144.28,-183.62 255.09,-355.92 337.92,-517.38z"/>
   <path class="fil0" d="M3516.9 515.71c920.71,0 1729.95,583 2194.34,1463.64l0 -1375.98c-581.37,-381.67 -1276.38,-603.74 -2023.71,-603.74 -2039.16,0 -3692.24,1653.08 -3692.24,3692.24 0,2039.2 1653.08,3692.28 3692.24,3692.28 747.33,0 1442.34,-222.35 2023.71,-603.78l0 -1348.28c-371.44,704.15 -963.61,1217.75 -1656.96,1395.31 -291.78,58.63 -537.67,67.2 -742.88,46.46l-2.5 0c-113.67,-11.89 -214.6,-32.35 -303.96,-58.35 -0.24,0 -0.52,0 -0.81,-0.28 -435.04,-148.81 -749.23,-557.85 -756.71,-1041.58 3.32,-110.35 20.18,-232.87 55.6,-367.56 0.28,-1.37 0.81,-2.75 1.1,-4.16 0.56,-1.66 1.09,-3.32 1.94,-4.98 2.75,-8.57 5.82,-17.42 9.13,-26 2.76,-7.72 5.51,-15.2 8.58,-22.68 6.91,-17.39 14.11,-34.82 21.83,-51.96 3.88,-8.58 7.76,-17.18 11.89,-25.76 1.38,-2.47 2.79,-5.25 3.88,-8 53.94,-111.45 123.62,-209.38 204.93,-289.56 1.41,-1.13 2.51,-2.23 3.32,-3.32 146.05,-142.17 329.14,-226.8 528,-226.8 144.36,0 280.42,44.8 399.91,123.61 26.56,17.71 49.25,41.77 63.07,70.8 21.28,44.81 27.1,109.82 -63.07,168.46 -138.29,84.35 -206.06,228.17 -151.84,332.42 48.4,93.48 178.93,125.02 312.25,84.38 149.36,-69.42 211.87,-171.2 237.03,-258.05l0.28 0 0 -0.57c0,-0.81 0.28,-1.37 0.28,-1.94 23.78,-83.5 10.8,-172.82 -30.16,-249.45 -61.1,-113.66 -199.67,-287.65 -496.99,-367.03 -5.26,-1.66 -8.58,-2.47 -8.58,-2.47l0 0.28c-8.29,-2.22 -16.58,-4.44 -24.9,-6.38 -7.2,-1.66 -14.36,-3.32 -21.56,-4.69 -81.03,-15.21 -164.57,-23.25 -250.29,-23.25 -711.63,0 -1288.56,549.03 -1288.56,1226.33 0,97.08 12.45,191.41 34.86,281.83 -552.07,-584.94 -901.39,-1448.4 -901.39,-2411.45 0,-1761.77 1167.98,-3189.99 2608.94,-3189.99z"/>
  </g>
 </g>
</svg>
