<?xml version="1.0" encoding="UTF-8"?>
<!DOCTYPE svg PUBLIC "-//W3C//DTD SVG 1.1//EN" "http://www.w3.org/Graphics/SVG/1.1/DTD/svg11.dtd">
<!-- Creator: CorelDRAW -->
<svg xmlns="http://www.w3.org/2000/svg" xml:space="preserve" width="77.47mm" height="52.2478mm" version="1.1" style="shape-rendering:geometricPrecision; text-rendering:geometricPrecision; image-rendering:optimizeQuality; fill-rule:evenodd; clip-rule:evenodd"
viewBox="0 0 7747 5224.78"
 xmlns:xlink="http://www.w3.org/1999/xlink"
 xmlns:xodm="http://www.corel.com/coreldraw/odm/2003">
 <defs>
  <style type="text/css">
   <![CDATA[
    .fil0 {fill:#A0A0A0;fill-rule:nonzero}
   ]]>
  </style>
 </defs>
 <g id="Capa_x0020_1">
  <metadata id="CorelCorpID_0Corel-Layer"/>
  <g id="_2083205534352">
   <path class="fil0" d="M3678.78 4153.85c-68.72,4.94 -443.4,-20.88 -468.17,12.1 -11.96,15.98 -93.45,364.78 -90.17,388.84 13.48,98.88 143.37,193.81 226.73,235.97 257.46,130.31 643.5,135.92 916.27,54.22 128.1,-38.38 378.5,-161.68 366.5,-321.34 -2.5,-33.73 -81.63,-354.76 -97.12,-365.62l-453.6 -7.2c-64.87,85.48 -69.71,259.22 -210.22,253.15 -125.16,-5.43 -140.09,-164.43 -190.22,-250.12zm3293.57 -2.43l-2156.81 0c16.26,52.85 28.29,228.6 81.91,238.76l2456.32 -6.84c77.9,-35.35 82.84,-82.63 70.17,-161.33l-293.72 -835.98 -277.07 -84.77c-19.19,5.47 -0.92,29.92 2.82,41.87 54.22,173.22 205.6,481.12 227.68,637.97 10.87,77.22 -32.42,156.35 -111.3,170.32zm-4037.5 0l-2156.82 0c-72.67,0 -121.07,-100.86 -111.3,-170.32 22.08,-156.85 173.5,-464.75 227.68,-637.97 3.74,-11.95 22.02,-36.4 2.83,-41.87l-277.08 84.77 -293.72 835.98c-12.66,78.7 -7.72,125.98 70.17,161.33l2456.32 6.84c53.62,-10.16 65.65,-185.91 81.92,-238.76zm3821.07 -268.43l-230.01 -657.4c-805.39,-189.37 -1741.2,-25.26 -2262.64,657.4l2492.65 0zm-3268.8 0c-521.58,-681.95 -1457.33,-847.09 -2262.61,-657.4l-230.05 657.4 2492.66 0zm522.39 -2781.02l0 2661.75 283.39 -305.9c681.28,-607.52 1595.01,-656.69 2450.92,-464.89 155.44,34.82 307.73,83.79 459.88,129.44l-925.69 -2601.67c-723.4,-270.23 -1637.8,-326.53 -2140.26,366.4 -24.03,33.12 -122.52,186.83 -128.24,214.87zm-268.64 2661.75l0 -2661.75c0,-12.49 -109.68,-189.3 -128.23,-214.87 -501.48,-691.55 -1418.03,-638.99 -2140.27,-366.4l-925.69 2601.67c969.01,-322.41 2101.57,-380.05 2910.81,335.45l283.38 305.9zm-29.88 1401.69c-55.56,-4.73 -148.98,-26.07 -206.34,-39.9 -262.46,-63.29 -532.66,-206.16 -639.51,-467.68l-2460.1 0.39c-236.96,-30.06 -396.98,-238.23 -344.24,-477.73l291.78 -843.53c-27.55,-75.88 -91.47,-129.72 -74.75,-221.37 309.81,-917.89 630.48,-1838.04 970.46,-2744.22 80.89,-111.12 374.79,-184.01 512.9,-218.23 747.92,-185.17 1475.56,-107.42 2002.22,493.86 25.83,29.45 90.28,143.51 97.12,149.19 8.51,7.05 20.78,2.08 30.84,-9.25 29.07,-32.59 59.9,-99.45 95.6,-139.94 554.21,-629.11 1310.18,-681.75 2085.59,-472.76 132.11,35.59 358.7,91.51 436.14,205.49l944.45 2650.17c27.77,78.57 27.38,147.08 -7.55,222.43 -15.84,34.15 -61.73,50.94 -45.33,97.23l296.02 816.78 0 193.85c-52.6,162.32 -177.42,277.25 -350.95,298.03l-2460.09 -0.39c-100.12,244.3 -345.41,389.72 -592.21,455.33 -84.17,22.37 -169.69,31.26 -253.65,52.25 -106.75,-6.56 -222.99,8.96 -328.4,0z"/>
   <path class="fil0" d="M1692.94 2336.61c476.74,-33.27 1295.54,57.36 1652.13,413.35 111.62,111.41 40.92,270.55 -115.99,235.23 -49.39,-11.11 -249.52,-158.89 -325.9,-196.39 -367.14,-180.3 -809.48,-228.07 -1214.47,-187.99 -114.13,11.28 -488.99,105.44 -560.74,82.55 -101.85,-32.5 -122.35,-182.6 -28.01,-238.31 84.17,-49.67 479.99,-100.54 592.98,-108.44z"/>
   <path class="fil0" d="M1827.27 1769.97c484.93,-34.04 1155.78,50.62 1539.14,377.12 141.53,120.54 56.41,290.02 -92.39,256.78 -48.05,-10.76 -224.62,-149.04 -293.73,-184.18 -340.99,-173.39 -763.97,-221.51 -1142.36,-185.56 -147.25,13.97 -371.37,87.49 -494.7,88.26 -126.65,0.81 -191.24,-169.89 -79.59,-244.47 73.38,-49.04 460.2,-100.68 563.63,-107.95z"/>
   <path class="fil0" d="M1976.54 1203.33c410.21,-28.61 841.05,23.63 1207.09,216.74 102.1,53.87 411.66,218.87 251.57,360.75 -109.61,97.16 -268.36,-67.73 -370.91,-122.2 -330.59,-175.54 -706.12,-216 -1077.1,-191.13 -127,8.5 -436.49,97.01 -530.86,67.66 -92.43,-28.75 -102.02,-178.37 -19.54,-229.87 83.82,-52.32 429.15,-94.23 539.75,-101.95z"/>
   <path class="fil0" d="M2125.8 636.68c407.17,-28.54 1007.71,57.65 1323.65,338.92 118.92,105.87 64.31,243.52 -85.23,250.61 -136.73,-66.78 -251.67,-160.65 -395.6,-217.63 -254.39,-100.61 -559.69,-126.08 -832.17,-107.74 -117.16,7.87 -421.53,91.76 -503.94,70.67 -107.53,-27.52 -116.46,-187.89 -25.02,-241.23 76.49,-44.63 416.56,-86.47 518.31,-93.6z"/>
   <path class="fil0" d="M5514.07 2336.66c294.28,-22.97 802.14,-5.75 1080.98,89.14 130.1,44.28 148.91,205.21 37.75,252.98 -71.55,30.73 -353.35,-47.87 -453.64,-61.14 -452.97,-59.83 -917.82,-32.24 -1331.98,171.17 -76.38,37.5 -276.48,185.28 -325.9,196.39 -108.27,24.38 -184.08,-41.59 -167.89,-152.36 12.28,-83.75 194.38,-184.05 267.8,-225.11 260.7,-145.77 593.9,-247.76 892.88,-271.07z"/>
   <path class="fil0" d="M5409.58 1770.01c270.12,-22.08 783.8,-4.3 1036.53,88.87 161.33,59.44 104.25,264.55 -38.98,263.52 -89.39,-0.63 -258.16,-57.46 -362.3,-71.4 -427.89,-57.18 -885.4,-29.24 -1274.38,169.05 -68.79,35.07 -247.05,173.29 -294.07,183.8 -119.38,26.67 -214.24,-100.33 -145.38,-205.32 27.87,-42.51 165.7,-128.27 215.58,-157.41 244.09,-142.41 580.53,-248.03 863,-271.11z"/>
   <path class="fil0" d="M5320.03 1203.37c241.05,-19.72 728.27,-2.68 951.44,84.38 117.08,45.69 137.69,198.19 32.91,242.89 -87.24,37.22 -418.11,-54.93 -541.2,-63.18 -366.64,-24.56 -750.85,15.2 -1077.06,191.17 -90.38,48.72 -322.05,261.48 -396.63,88.3 -67.17,-156 171.59,-272.24 286.91,-332.11 220.17,-114.3 495.94,-191.2 743.63,-211.45z"/>
   <path class="fil0" d="M6168.54 940.14c-10.58,10.58 -36.86,27.94 -50.59,31.08 -97.15,22.19 -376.87,-61.84 -504.01,-70.38 -356.27,-23.92 -688.48,20.92 -1002.45,191.14 -101.57,55.03 -220.07,197.37 -334.19,100.36 -185.03,-157.23 221.23,-348.69 334.15,-398.64 389.71,-172.37 835.48,-194.48 1252.04,-127.28 70.98,11.46 260.21,40.04 303.71,84.31 50.06,50.94 52.46,138.4 1.34,189.41z"/>
  </g>
 </g>
</svg>
