<?xml version="1.0" encoding="UTF-8"?>
<!DOCTYPE svg PUBLIC "-//W3C//DTD SVG 1.1//EN" "http://www.w3.org/Graphics/SVG/1.1/DTD/svg11.dtd">
<!-- Creator: CorelDRAW -->
<svg xmlns="http://www.w3.org/2000/svg" xml:space="preserve" width="64.77mm" height="64.9478mm" version="1.1" style="shape-rendering:geometricPrecision; text-rendering:geometricPrecision; image-rendering:optimizeQuality; fill-rule:evenodd; clip-rule:evenodd"
viewBox="0 0 6477 6494.78"
 xmlns:xlink="http://www.w3.org/1999/xlink"
 xmlns:xodm="http://www.corel.com/coreldraw/odm/2003">
 <defs>
  <style type="text/css">
   <![CDATA[
    .fil0 {fill:#A0A0A0;fill-rule:nonzero}
   ]]>
  </style>
 </defs>
 <g id="Capa_x0020_1">
  <metadata id="CorelCorpID_0Corel-Layer"/>
  <g id="_2083409742528">
   <path class="fil0" d="M6114.19 149.31c116.87,46.95 206.51,127.42 218.3,259.68l-1.52 5699.23c-89.82,376.8 -571.18,194.87 -851.82,236.75 -88.86,-33.77 -88.86,-147.15 0,-180.91 166.23,-22.61 420.02,31.43 575.38,-5.54 45.02,-10.69 95.96,-64.59 95.96,-109.75l0 -4943.44 -3963.25 0c-28.78,0 -68.26,-72.28 -66.46,-101.98 1.73,-28.65 55.31,-91.66 78.6,-91.66l3951.11 0 0 -465.91c0,-59.76 -77.15,-122.63 -138.71,-115.43l-5598.23 5.68c-44,6.03 -95.96,68.33 -95.96,109.75l0 465.91 1494.51 0c32.28,0 77.54,55.39 79.76,90.81 2.22,35.66 -33.27,102.83 -67.66,102.83l-1506.61 0 0 1930.19c0,3.42 -42.76,45.58 -48.61,48.09 -61.21,26.28 -90.77,-5.51 -132.93,-42.06l0 -2674.4c43.39,-110.78 107,-174.45 217.84,-217.84l5760.3 0z"/>
   <path class="fil0" d="M136.06 6127.44l0 -2747.05c49.28,-78.56 172.47,-71.33 181.75,30.02l-0.64 2602.48c0.5,87.66 47.14,151.06 139.1,151.31l4623.83 -1.03c132.89,-0.24 132.89,182.88 0,182.67l-4684.36 -0.11c-132.26,-11.78 -212.73,-101.42 -259.68,-218.29z"/>
   <path class="fil0" d="M1566.7 625.36c0,52.88 -42.86,95.75 -95.75,95.75 -52.91,0 -95.77,-42.87 -95.77,-95.75 0,-52.88 42.86,-95.74 95.77,-95.74 52.89,0 95.75,42.86 95.75,95.74z"/>
   <path class="fil0" d="M740.13 625.32c0,52.67 -42.69,95.39 -95.39,95.39 -52.67,0 -95.36,-42.72 -95.36,-95.39 0,-52.67 42.69,-95.39 95.36,-95.39 52.7,0 95.39,42.72 95.39,95.39z"/>
   <path class="fil0" d="M1152.67 624.97c0,52.56 -42.61,95.14 -95.14,95.14 -52.57,0 -95.15,-42.58 -95.15,-95.14 0,-52.56 42.58,-95.14 95.15,-95.14 52.53,0 95.14,42.58 95.14,95.14z"/>
   <path class="fil0" d="M1855.68 2038.39l-194.52 682.9c-37.36,91.62 -116.49,96.56 -181.54,23.5 -32.17,-36.13 -166.97,-216.22 -182.7,-252.94 -48.62,-113.32 59.23,-192.66 140.4,-128.24 14.5,11.5 81.49,131.2 102.45,109.12l180.48 -600.04c25.19,-21.59 71.22,-26.92 103.54,-29.6 138.29,-11.5 433.18,-14.54 567.8,1.83 150.07,18.24 139.34,175.23 36.93,191.45l-572.84 2.02z"/>
   <path class="fil0" d="M1996.27 2233.32c108.76,-24.66 154.58,83.75 227.29,142.45 60.36,-54.47 173.78,-222.39 260.49,-115.15 75.32,93.17 -70.34,179.22 -120.44,244.09 -7.09,40.54 226.73,157.69 109.01,265.47 -91.83,84.06 -186.72,-62.09 -250.72,-115.01 -39.26,-6.84 -162.28,228.74 -264.12,107.63 -80.65,-95.85 73.94,-182.7 126.4,-247.65 0,-12.63 -131.52,-111.44 -142.49,-159.91 -11.08,-48.9 -1.45,-109.22 54.58,-121.92z"/>
   <path class="fil0" d="M4450.15 5147.23c0,-63.05 -51.11,-114.13 -114.12,-114.13 -63.04,0 -114.16,51.08 -114.16,114.13 0,63.04 51.12,114.12 114.16,114.12 63.01,0 114.12,-51.08 114.12,-114.12zm187.65 -580.89l0 659.52c0,88.19 -162.85,212.12 -249.38,222.53 -517.28,62.13 -438.61,-757.8 67.87,-579.51l0 -478.01c0,-28.65 78.14,-56.76 111.73,-52.04 52.91,7.41 348.33,125.98 385.02,160.38 97.01,90.87 88.72,392.75 -69.96,324.31 -98.28,-42.41 -43.21,-159.25 -75.53,-190.96 -24.59,-24.1 -134.23,-40.61 -169.75,-66.22z"/>
   <path class="fil0" d="M4403.83 2123.85c-15.1,5.15 -112.15,169.44 -114.9,188.49 -4.2,28.86 92.96,199.39 114.9,206.87 20.71,7.05 218.3,5.25 233.89,-4.13 12.56,-7.55 108.06,-176.42 108.06,-193.57 0,-13.02 -92.11,-179.03 -101.78,-187.71 -17.85,-16.09 -213.78,-18.95 -240.17,-9.95zm514.77 291.01c-16.08,9.34 -111.9,208.1 -137.55,243.52 -76.79,106.04 -260.7,35.42 -377.29,58.38 -63.04,65.69 -135.36,335.78 -262.79,210.58 -101.07,-99.31 84.67,-222.54 84.46,-303.32 -0.18,-68.55 -158.96,-229.56 -149.93,-310.34 8.47,-75.85 153.6,-244.65 151.13,-293.65 -2.19,-42.2 -111.2,-176.46 -127.67,-236.65 -27.41,-100.04 74.19,-159.17 151.34,-103.01 42.16,30.66 123.83,235.73 153.46,245.92 83.18,17.71 268.75,-22.86 335.6,15.35 61.03,34.92 142.91,262.71 176.63,283.21 60.93,37.04 289.53,-43.57 321.49,53.59 71.44,216.99 -252.87,98.07 -318.88,136.42z"/>
   <path class="fil0" d="M1107.18 4048.9l-3.31 1685.54 1677.52 6.91 17.68 -54.93 -6.81 -1337.83c-75.99,-50.95 -151.24,-106.47 -211.35,-175.9 -30.23,-34.92 -78.32,-131.3 -115.53,-138.57l-1282.95 -0.71c-17.64,1.34 -64.24,6.11 -75.25,15.49zm2792.45 -341.77l-568.78 0 0 556.68c290.97,-25.29 523.16,-272.66 568.78,-556.68zm-762.39 0l-568.78 0c44.76,282.61 279.29,531.85 568.78,556.68l0 -556.68zm762.39 -193.6c-39.58,-287.87 -277.5,-539.23 -568.78,-568.79l0 568.79 568.78 0zm-762.39 -568.79c-291.96,30.41 -529.48,281.2 -568.78,568.79l568.78 0 0 -568.79zm836.9 227.97l1323.9 2.68 54.93 -17.71 -6.07 -1678.38 -1666.28 6.04 -11.64 48.89 0.92 1307.43c51.72,67.98 136.88,107.91 199.6,175.54 39.62,42.69 82.87,101.78 104.64,155.51zm-1480.22 0c21.8,-53.73 65.05,-112.82 104.63,-155.51 38.88,-41.87 194.1,-147.39 199.6,-175.54l0.92 -1307.43 -11.61 -48.89 -1666.31 -6.04 -6.03 1678.38 54.93 17.71 1323.87 -2.68zm-1371.6 195.58c-102.91,-14.5 -201.97,-119.91 -211.81,-223.84 35.35,-526.7 -46.92,-1114.78 -0.46,-1634.21 13.19,-147.32 119.34,-224.93 260.24,-235.94 502.22,-39.23 1054.46,30.62 1561.96,0 88.09,-13.93 259.75,99.73 259.75,188.03l0 1313.01c162.63,-45.48 321.52,-45.44 484.08,0l0 -1313.01c0,-88.3 171.67,-201.96 259.72,-188.03 507.54,30.62 1059.78,-39.23 1561.99,0 140.9,11.01 247.05,88.62 260.21,235.94 46.46,519.43 -35.8,1107.51 -0.46,1634.21 -0.1,91.26 -123.61,223.84 -211.8,223.84l-1276.71 0c33.98,161.75 33.94,322.51 0,484.08l1325.11 0c4.48,0 68.96,36.41 77.89,43.11 62.23,46.81 91.4,116.17 98.04,192.44 45.12,520.98 -34.72,1106.34 -0.43,1634.17 -17.28,134.37 -129.15,217.17 -259.75,224.26 -508.1,-37.6 -1085.81,48.83 -1585.63,-0.56 -134.55,-13.27 -236.18,-95.57 -248.67,-235.38 -9.88,-110.27 -14.89,-417.16 1.2,-520.13 17.5,-112.11 168.31,-96.35 190.36,1.83 30.3,135.12 -17.39,360.61 1.97,506.27 3.28,24.73 6.85,42.41 33.27,51.47l1661.83 -15.41 -8.36 -1689.42 -58 -11.64 -1305.2 2.79c-93.31,126.64 -188.77,232.72 -320.96,320.39 -23,110.59 29.7,380.5 -15.66,468.42 -46.36,89.92 -179.96,51.47 -179.96,-10.55l0 -381.21c-160.19,48.93 -324.06,48.86 -484.08,0l0 1313.04c0,8.07 -34.46,77.36 -43.11,89.95 -47.16,68.83 -123.29,101.5 -205.07,109.58 -499.78,49.46 -1077.59,-37.08 -1585.63,0.56 -130.77,-7.09 -242.53,-90.06 -259.78,-224.26l0.17 -1645.71c6.57,-69.57 41.28,-138.64 97.48,-180.9 8.92,-6.7 73.41,-43.11 77.85,-43.11l1325.14 0c-34,-161.71 -33.97,-322.51 0,-484.08l-1276.73 0z"/>
   <path class="fil0" d="M2350.62 4989.9l-145.21 0 0 338.85 145.21 0 0 -338.85zm-665.55 -229.94l-145.21 0 0 568.79 145.21 0 0 -568.79zm326.7 -229.9l-133.1 0 0 798.69 133.1 0 0 -798.69zm193.64 266.2l260.18 0c25.89,0 73.3,61.92 77.96,91.48 10.34,65.55 -14,424.6 1.27,440.48 6.39,6.59 85.62,-3.21 120.69,42.58 49.39,64.56 3.84,156.74 -78.36,152.12l-1316.99 -3.18c-68.61,-15.77 -84.91,-127.95 -27.34,-167.29 28.12,-19.22 99.13,-20.46 102.8,-24.23 22.83,-23.71 -17.04,-577.04 1.7,-657.9 -4.73,-32.66 50.8,-103.96 77.54,-103.96l260.21 0c6.1,-67.95 -26.18,-187.68 51.43,-220.84l417.44 0c12.77,6.84 24.52,15.63 33.02,27.48 46.61,65.02 3.25,331.33 18.45,423.26z"/>
  </g>
 </g>
</svg>
